<svg xmlns="http://www.w3.org/2000/svg" xmlns:xlink="http://www.w3.org/1999/xlink" viewBox="0 0 1261.896 1107.421">
    <defs>
      <filter id="Path_35" x="0" y="0" width="576.173" height="1107.421" filterUnits="userSpaceOnUse">
        <feOffset dy="3" input="SourceAlpha"/>
        <feGaussianBlur stdDeviation="3" result="blur"/>
        <feFlood flood-opacity="0.161"/>
        <feComposite operator="in" in2="blur"/>
        <feComposite in="SourceGraphic"/>
      </filter>
      <filter id="Path_61" x="686.104" y="0" width="575.792" height="1107.421" filterUnits="userSpaceOnUse">
        <feOffset dy="3" input="SourceAlpha"/>
        <feGaussianBlur stdDeviation="3" result="blur-2"/>
        <feFlood flood-opacity="0.161"/>
        <feComposite operator="in" in2="blur-2"/>
        <feComposite in="SourceGraphic"/>
      </filter>
    </defs>
    <g transform="matrix(1, 0, 0, 1, 0, 0)" filter="url(#Path_35)">
      <path id="Path_35-2" data-name="Path 35" d="M101.87,32.241V1026.7a23.883,23.883,0,0,0,25.747,23.693c19.738-1.331,39.589-2.016,59.365-2.016,123.447,0,231,15.555,324.514,47.044l18.368-74.5-5.59-4.3,11.713-20.612v-.837L503.738,997l-7.606-6.009-7.606-2.434-17.912-26.089-9.622,20.156-15.212-3.308,17.114-31.565L437.07,907.93l-40.312-19.281-29.626,20.536-5.4-14.794,17.456-12.854-27.953-14.6-2.7-7.416-7.606-6.009-3.118-31.223-16.924,12.778-12.74-10,29.626-20.537-3.423-45.979-28.1-37.194L271.22,725.8l2.32-15.212,22.476-2.966-20.422-25.785,2.4-8.785-2.7-7.606,12.055-28.9-22.514,1.673-7.606-13.729,37.346-4.221,16.658-42.86-5.667-44.99-35.368-13.006,9.774-12.74,22.818,8.595-5.438-31.451,4.716-7.606v-8.747l24.682-20.308-20.156-8.367-.266-15.212,35.1,13.2,34.57-29.588,14.223-43.7L367.17,336.218l14.756-6.427,15.44,17.19,9.432-30.158,7.416-4.183,4.982-7.606,32.478-5.7L436.2,280.884l7.226-12.664,23.046,27.268,47.5-8.519,31.984-32.858-8.025-34.988,14.87,1.027,5.515,22.438,22.172-22.818,10,1.1,7.34-5.248,30.158,9.47L622.7,202.617l14.756-7.606L645.515,230l14.338,4.031V198.282l-4.6,2.586-10.42-9.812,15.212-8.291V146.256a21.7,21.7,0,0,0-.228-3.157h0a23.922,23.922,0,0,0-9.964-16.467C532.3,45.4,380.633,6,186.982,6c-21.107,0-42.29.8-63.359,2.434A23.807,23.807,0,0,0,101.87,32.241ZM488.64,276.473l1.977-32.592L518.341,260.8l-7.035,22.818Zm-40.2-15.669,29.245-43.05,50.276,1.673-4.906,13.919-37.688-.608-21.716,32.9ZM338.153,380.41l30.044,2.054,5.286,23.731-22.514,2.7Zm-29.626,34.227,4.222-51.341,47.006-23.389,2.814,14.794-34.8,18.331-4.184,38.753ZM435.359,934.285l-29.816,9.241,6.845-31.413,22.552-1.673Zm-65.412-16.277,15.212-1.559,13.235,37.194,37.574,8.062.266,15.212-50.2-11.675ZM290.083,775.356l19.51-25.48,22.818,9.85-12.17,21.487Zm-27.534,10.458,6.808-51.379,12.4,5.933-4.45,39.171,30.425,25.594-7.15,14ZM289.17,591.326l-25.214-19.548L293.7,558.7l15.44,18.673Zm-52.976-22.818,29.512-41.834,10.192,11.1L251.33,569.459l15.782,37.422-12.626,9.013Z" transform="translate(-92.87 0)" fill="#fff"/>
    </g>
    <g transform="matrix(1, 0, 0, 1, 0, 0)" filter="url(#Path_61)">
      <path id="Path_61-2" data-name="Path 61" d="M799.612,8.434C778.542,6.8,757.359,6,736.252,6,542.6,6,391.126,45.4,273.612,126.4a23.921,23.921,0,0,0-9.964,16.505h0a21.64,21.64,0,0,0-.228,3.157v36.509l15.022,8.291-10.42,9.812-4.6-2.586V233.84l14.338-4.031,8.062-34.988,14.757,7.606-5.287,22.628,30.159-9.47,7.34,5.248,10-1.1,22.171,22.818,5.515-22.438,14.869-1.027-8.024,34.988L409.3,286.931l47.5,8.519,23.047-27.04,7.226,12.664L471.6,299.519l32.479,5.7,4.982,7.606,7.568,3.8,9.432,30.158L541.5,329.6l14.755,6.427-23.237,27.458L547.393,407.3l34.57,29.588,35.1-13.2L616.8,438.9l-20.308,8.253,24.8,20.422v8.747L626,483.929l-5.438,31.451,22.819-8.595,9.774,12.74L617.826,532.76l-5.666,44.99,16.657,42.86,37.346,4.221-7.607,13.729-22.514-1.673,12.056,28.9-2.7,7.606,2.4,8.785-20.422,25.785,22.476,2.966,2.319,15.212-35.026-4.45-28.257,36.851-3.422,46.093,29.625,20.536-12.74,9.888-17.266-12.778-3.119,31.223-7.606,6.009-2.7,7.416-27.952,14.6,17.456,12.854-5.4,14.794-29.625-20.536L485.822,907.93,460,947.748l17.114,31.565L461.9,982.622l-9.622-20.156-17.913,26.089-7.606,2.434L419.154,997,386.9,995.172l.19.837,11.714,20.612-5.591,4.3,18.369,74.5c93.516-31.489,201.066-47.044,324.513-47.044,19.776,0,39.628.685,59.365,2.016a23.883,23.883,0,0,0,25.747-23.693V32.241A23.808,23.808,0,0,0,799.612,8.434ZM411.929,283.622,404.893,260.8l27.725-16.924,1.977,32.592Zm47.652-17.988L437.865,232.7l-37.688.608-4.906-13.919,50.276-1.673L474.793,260.8Zm112.8,143.223-22.514-2.7,5.287-23.731,30.044-2.054Zm27.382,3.042-4.184-38.753-34.8-18.331,2.814-14.794,47.081,23.465,4.222,51.341ZM488.485,910.554l22.551,1.673,6.845,31.413L488.066,934.4Zm49.021,54.688-50.2,11.675.266-15.212,37.574-8.062,13.235-37.194,15.212,1.559ZM603.3,781.327l-12.17-21.487,22.818-9.85,19.509,25.48Zm19.319,37.8-7.111-14,30.425-25.594-4.184-39.057,12.4-5.933,6.807,51.379Zm-8.252-241.645,15.44-18.673,29.74,13.082-25.024,19.548Zm54.384,38.411-12.359-9.013,15.782-37.422L647.6,537.78l10.192-11.1,29.511,41.834Z" transform="translate(431.68 0)" fill="#fff"/>
    </g>
</svg>