<svg xmlns="http://www.w3.org/2000/svg" width="22.871" height="19.17" viewBox="0 0 22.871 19.17">
                        <g id="Colored" transform="translate(-117.1 -6)">
                          <path id="Path_15" data-name="Path 15" d="M63.122,35.29h.87v.628h-.827v15.9a13.141,13.141,0,0,1,4.82-.852,17.525,17.525,0,0,1,2.277.152q.354.047.678.1l-.371,1.506H63.122a.694.694,0,0,1-.692-.694V35.982A.694.694,0,0,1,63.122,35.29Z" transform="translate(54.67 -27.56)" fill="#19164d"/>
                          <path id="Path_16" data-name="Path 16" d="M188.715,200.615l-.095-.835.318.421.815-.3-.574.691.278.405-.743-.337Z" transform="translate(-64.065 -182.332)" fill="#19164d"/>
                          <path id="Path_17" data-name="Path 17" d="M194.123,120.5l.616.4a3.293,3.293,0,0,0-.669,1.052l-.63-.462.225-.565Z" transform="translate(-68.601 -107.736)" fill="#2eb3c0"/>
                          <path id="Path_18" data-name="Path 18" d="M188.541,177.89a3.284,3.284,0,0,0,.5,1.136l-.875.326-.36-.519-.087-.62Z" transform="translate(-63.219 -161.735)" fill="#2eb3c0"/>
                          <path id="Path_19" data-name="Path 19" d="M202.68,202.022l.626-.733a3.286,3.286,0,0,0,.465.455.89.89,0,0,1,.32.526l-.5.532-.551-.281Z" transform="translate(-77.295 -183.753)" fill="#2eb3c0"/>
                          <path id="Path_20" data-name="Path 20" d="M216.412,102.21l.349.6a3.28,3.28,0,0,0-1.08.591l-.311-.646.458-.394Z" transform="translate(-89.235 -90.526)" fill="#2eb3c0"/>
                          <path id="Path_21" data-name="Path 21" d="M167.971,212.87l-.051-.645.539-.376.546.281v.019h.04l.05.6-.539.38Z" transform="translate(-44.588 -193.689)" fill="#ee8022"/>
                          <path id="Path_22" data-name="Path 22" d="M183.3,220.084l-.587-.284.535-.4v-.06l-.045-.525.86.415.52.827-.541.009H184l-.039.057-.3.511Z" transform="translate(-58.505 -200.247)" fill="#2eb3c0"/>
                          <path id="Path_23" data-name="Path 23" d="M201.43,243.962l.3-.591.625-.011v.02l.2.277-.205.832-.6.028Z" transform="translate(-76.119 -223.337)" fill="#ee8022"/>
                          <path id="Path_24" data-name="Path 24" d="M160.025,183.435l-.435-.538.659-.087.035-.061.186-.509.6.786.093.974-.546-.265-.039.04-.54.32Z" transform="translate(-36.75 -165.828)" fill="#2eb3c0"/>
                          <path id="Path_25" data-name="Path 25" d="M228.294,90.2v.065l-.346.08-.02.892-.444-.769-.464.1L227.6,90l.036.019V90Z" transform="translate(-100.197 -79.038)" fill="#19164d"/>
                          <path id="Path_26" data-name="Path 26" d="M181.327,131.537l-.187.469-.129-.813v-.036l.652-.517-.187.469.71.513Z" transform="translate(-56.905 -117.277)" fill="#19164d"/>
                          <path id="Path_27" data-name="Path 27" d="M198.726,105.274l.818-.154-.385.321.405.809-.75-.492-.384.337.261-.785v-.016Z" transform="translate(-73.296 -93.264)" fill="#19164d"/>
                          <path id="Path_28" data-name="Path 28" d="M211.952,224.534l-.442-.692.434.243.454-.484a.156.156,0,0,1-.007.031l-.226.915-.173.007Z" transform="translate(-85.603 -204.745)" fill="#19164d"/>
                          <path id="Path_29" data-name="Path 29" d="M240.9,69.09l.178.053v1.141l-.471-.137.423-.418v-.056Z" transform="translate(-112.984 -59.363)" fill="#2eb3c0"/>
                          <path id="Path_30" data-name="Path 30" d="M246.03,98.14v.709c-.054.007-.107.016-.16.025l.012-.7Z" transform="translate(-117.933 -86.697)" fill="#2eb3c0"/>
                          <path id="Path_31" data-name="Path 31" d="M176.431,165.456v-.04l.333-.766.049.5.9.139-.851.33.089.5Z" transform="translate(-52.596 -149.277)" fill="#19164d"/>
                          <path id="Path_32" data-name="Path 32" d="M185.331,150.966l-.051-.62.224-.585.768.082a3.3,3.3,0,0,0-.11.845,3.378,3.378,0,0,0,.024.4Z" transform="translate(-60.923 -135.267)" fill="#2eb3c0"/>
                          <path id="Path_33" data-name="Path 33" d="M201.567,75.48l.167.638.08.018.508.147-.689.673-.968.192.185-.569-.041-.055-.4-.459.659-.131Z" transform="translate(-75.159 -65.375)" fill="#2eb3c0"/>
                          <path id="Path_34" data-name="Path 34" d="M224.316,64.954l.127.639-.458.414-.588-.145-.167-.658.458-.434Z" transform="translate(-96.631 -55.298)" fill="#ee8022"/>
                          <path id="Path_35" data-name="Path 35" d="M101.87,6.408V21.856a.371.371,0,0,0,.4.368c.307-.021.615-.031.922-.031a15.754,15.754,0,0,1,5.041.731l.285-1.157-.087-.067.182-.32v-.013l-.5.028-.118-.093-.118-.038-.278-.405-.149.313-.236-.051.266-.49-.4-.619-.626-.3-.46.319-.084-.23.271-.2-.434-.227-.042-.115-.118-.093-.048-.485-.263.2-.2-.155.46-.319-.053-.714-.437-.578-.544.069.036-.236.349-.046-.317-.4.037-.136-.042-.118.187-.449-.35.026-.118-.213.58-.066.259-.666-.088-.7-.549-.2.152-.2.354.134-.084-.489.073-.118v-.136l.383-.315-.313-.13,0-.236.545.2.537-.46.221-.679-.358-.424.229-.1.24.267.147-.468.115-.065.077-.118.5-.089-.24-.287.112-.2.358.424.738-.132.5-.51-.125-.544.231.016.086.349.344-.354.155.017.114-.082.468.147-.082-.349.229-.118.125.544.223.063V8.987l-.071.04-.162-.152.236-.129V8.179a.337.337,0,0,0,0-.049h0a.372.372,0,0,0-.155-.256A12.319,12.319,0,0,0,103.192,6c-.328,0-.657.012-.984.038a.37.37,0,0,0-.338.37Zm6.008,3.794.031-.506.431.263-.109.354Zm-.624-.243.454-.669.781.026-.076.216-.585-.009-.337.511Zm-1.713,1.858.467.032.082.369-.35.042Zm-.46.532.066-.8.73-.363.044.23-.541.285-.065.6Zm1.97,8.072-.463.144.106-.488.35-.026Zm-1.016-.253.236-.024.206.578.584.125,0,.236-.78-.181Zm-1.241-2.216.3-.4.354.153-.189.334Zm-.428.162.106-.8.193.092-.069.608.473.4-.111.217Zm.414-3.021-.392-.3.462-.2.24.29Zm-.823-.354.458-.65.158.173-.382.492.245.581-.2.14Z" transform="translate(17.56)" fill="#19164d"/>
                          <path id="Path_36" data-name="Path 36" d="M183.093,86.41l.435.5-.22.589-.623.147-.435-.5.184-.624Z" transform="translate(-58.072 -75.66)" fill="#ee8022"/>
                          <path id="Path_37" data-name="Path 37" d="M150.82,170.588l.22-.609.7-.069.319.5v.02l-.221.565-.659.092Z" transform="translate(-28.499 -154.227)" fill="#ee8022"/>
                          <path id="Path_38" data-name="Path 38" d="M169.538,103.13l.438.478.076-.017.5-.109-.295.921-.766.615-.09-.58-.037-.04-.549-.225.5-.415Z" transform="translate(-45.435 -91.392)" fill="#2eb3c0"/>
                          <path id="Path_39" data-name="Path 39" d="M156.668,142.855l.629.224.035-.041.424-.358.173.969-.41.9-.36-.5-.039.021-.62.051.26-.61Z" transform="translate(-33.843 -128.605)" fill="#2eb3c0"/>
                          <path id="Path_40" data-name="Path 40" d="M156.958,123.5l.63.263.086.6v.02l-.459.4-.625-.224-.131-.639Z" transform="translate(-33.805 -110.558)" fill="#ee8022"/>
                          <path id="Path_41" data-name="Path 41" d="M313.319,35.29h-.87v.628h.827v15.9a13.141,13.141,0,0,0-4.82-.852,17.525,17.525,0,0,0-2.277.152q-.354.045-.679.1l.371,1.506h7.448a.694.694,0,0,0,.692-.694V35.982a.694.694,0,0,0-.692-.692Z" transform="translate(-174.041 -27.56)" fill="#19164d"/>
                          <path id="Path_42" data-name="Path 42" d="M305.239,200.615l.095-.835-.318.421-.815-.3.573.691-.278.405.743-.337Z" transform="translate(-172.817 -182.332)" fill="#19164d"/>
                          <path id="Path_43" data-name="Path 43" d="M297.186,120.5l-.616.4a3.292,3.292,0,0,1,.669,1.052l.63-.462-.225-.565Z" transform="translate(-165.638 -107.736)" fill="#2eb3c0"/>
                          <path id="Path_44" data-name="Path 44" d="M302.41,177.89a3.284,3.284,0,0,1-.5,1.136l.875.326.36-.519.087-.62Z" transform="translate(-170.663 -161.735)" fill="#2eb3c0"/>
                          <path id="Path_45" data-name="Path 45" d="M286.851,202.022l-.626-.733a3.286,3.286,0,0,1-.465.455.89.89,0,0,0-.32.526l.5.532.551-.281Z" transform="translate(-155.166 -183.753)" fill="#2eb3c0"/>
                          <path id="Path_46" data-name="Path 46" d="M273.439,102.21l-.349.6a3.281,3.281,0,0,1,1.08.591l.311-.646-.458-.394Z" transform="translate(-143.545 -90.526)" fill="#2eb3c0"/>
                          <path id="Path_47" data-name="Path 47" d="M325.3,212.87l.051-.645-.539-.376-.546.281v.019h-.04l-.05.6.539.38Z" transform="translate(-191.617 -193.689)" fill="#ee8022"/>
                          <path id="Path_48" data-name="Path 48" d="M298.951,220.084l.587-.284-.535-.4v-.06l.045-.525-.86.415-.52.827.541.009h.04l.039.057.3.511Z" transform="translate(-166.673 -200.247)" fill="#2eb3c0"/>
                          <path id="Path_49" data-name="Path 49" d="M292.683,243.962l-.3-.591-.625-.011v.02l-.2.277.205.832.6.028Z" transform="translate(-160.924 -223.337)" fill="#ee8022"/>
                          <path id="Path_50" data-name="Path 50" d="M326.927,183.435l.435-.538-.659-.087-.035-.061-.186-.509-.6.786-.093.974.546-.265.039.04.54.32Z" transform="translate(-193.132 -165.828)" fill="#2eb3c0"/>
                          <path id="Path_51" data-name="Path 51" d="M263.42,90.2v.065l.346.08.02.892.444-.769.464.1L264.118,90l-.036.019V90Z" transform="translate(-134.446 -79.038)" fill="#19164d"/>
                          <path id="Path_52" data-name="Path 52" d="M311.958,131.537l.187.469.13-.813v-.036l-.652-.517.187.469-.71.513Z" transform="translate(-179.31 -117.277)" fill="#19164d"/>
                          <path id="Path_53" data-name="Path 53" d="M295.218,105.274l-.818-.154.385.321-.405.809.75-.492.384.337-.261-.785v-.016Z" transform="translate(-163.577 -93.264)" fill="#19164d"/>
                          <path id="Path_54" data-name="Path 54" d="M285.905,224.534l.443-.692-.434.243-.454-.484a.154.154,0,0,0,.007.031l.226.915.173.007Z" transform="translate(-155.184 -204.745)" fill="#19164d"/>
                          <path id="Path_55" data-name="Path 55" d="M263.6,69.09l-.178.053v1.141l.471-.137-.423-.418v-.056Z" transform="translate(-134.446 -59.363)" fill="#2eb3c0"/>
                          <path id="Path_56" data-name="Path 56" d="M263.42,98.14v.709c.054.007.107.016.16.025l-.012-.7Z" transform="translate(-134.446 -86.697)" fill="#2eb3c0"/>
                          <path id="Path_57" data-name="Path 57" d="M315.18,165.456v-.04l-.333-.766-.049.5-.9.139.851.33-.089.5Z" transform="translate(-181.944 -149.277)" fill="#19164d"/>
                          <path id="Path_58" data-name="Path 58" d="M310.862,150.966l.051-.62-.224-.585-.768.082a3.3,3.3,0,0,1,.11.845,3.381,3.381,0,0,1-.024.4Z" transform="translate(-178.199 -135.267)" fill="#2eb3c0"/>
                          <path id="Path_59" data-name="Path 59" d="M279.994,75.48l-.167.638-.08.018-.508.147.689.673.968.192-.185-.569.041-.055.4-.459-.659-.131Z" transform="translate(-149.332 -65.375)" fill="#2eb3c0"/>
                          <path id="Path_60" data-name="Path 60" d="M268.357,64.954l-.127.639.458.414.588-.145.167-.658-.458-.434Z" transform="translate(-138.972 -55.298)" fill="#ee8022"/>
                          <path id="Path_61" data-name="Path 61" d="M271.749,6.038c-.327-.025-.656-.038-.984-.038a12.332,12.332,0,0,0-7.187,1.87.372.372,0,0,0-.155.256h0a.342.342,0,0,0,0,.049v.567l.233.129-.162.152-.072-.04v.555l.223-.063.125-.544.229.118-.082.352.469-.147.114.082.155-.017.344.354.086-.349.231-.016-.125.544.5.51.738.132.358-.42.112.2-.24.287.5.089.077.118.118.059.147.468.24-.267.229.1-.361.427.223.681.537.46.545-.2,0,.236-.315.128.385.317v.136l.073.118-.085.489.354-.134.152.2-.549.206-.088.7.259.666.58.066-.118.213-.35-.026.187.449-.042.118.037.136-.317.4.349.046.036.236-.544-.069-.439.572-.053.716.46.319-.2.154-.268-.2-.048.485-.118.093-.042.115-.434.227.271.2-.084.23-.46-.319-.626.3-.4.619.266.49-.236.051-.149-.313-.278.405-.118.038-.118.093-.5-.028,0,.013.182.32-.087.067.285,1.157a15.754,15.754,0,0,1,5.041-.731c.307,0,.616.011.922.031a.371.371,0,0,0,.4-.368V6.408A.37.37,0,0,0,271.749,6.038Zm-6.022,4.275-.109-.354.431-.263.031.506Zm.74-.279-.337-.512-.585.009-.076-.216.781-.026.454.669Zm1.752,2.225-.35-.042.082-.369.467-.032Zm.425.047-.065-.6-.541-.285.044-.23.731.365.066.8Zm-1.729,7.746.35.026.106.488-.463-.144Zm.762.85-.78.181,0-.236.584-.125.206-.578.236.024Zm1.022-2.857-.189-.334.354-.153.3.4Zm.3.587-.11-.217.473-.4-.065-.607.193-.092.106.8Zm-.128-3.754.24-.29.462.2-.389.3Zm.845.6-.192-.14.245-.581-.382-.492.158-.173.458.65Z" transform="translate(-134.446)" fill="#19164d"/>
                          <path id="Path_62" data-name="Path 62" d="M308.555,86.41l-.435.5.22.589.623.147.435-.5-.184-.624Z" transform="translate(-176.506 -75.66)" fill="#ee8022"/>
                          <path id="Path_63" data-name="Path 63" d="M341.439,170.588l-.22-.609-.7-.069-.32.5v.02l.221.565.659.092Z" transform="translate(-206.691 -154.227)" fill="#ee8022"/>
                          <path id="Path_64" data-name="Path 64" d="M314.817,103.13l-.438.478-.076-.017-.5-.109.294.921.766.615.09-.58.037-.04.549-.225-.5-.415Z" transform="translate(-181.85 -91.392)" fill="#2eb3c0"/>
                          <path id="Path_65" data-name="Path 65" d="M332.571,142.855l-.629.224-.035-.041-.424-.358-.173.969.41.9.359-.5.04.021.62.051-.26-.61Z" transform="translate(-198.326 -128.605)" fill="#2eb3c0"/>
                          <path id="Path_66" data-name="Path 66" d="M335.7,123.5l-.63.263-.086.6v.02l.459.4.625-.224.131-.639Z" transform="translate(-201.779 -110.558)" fill="#ee8022"/>
                        </g>
                      </svg>