<svg xmlns="http://www.w3.org/2000/svg" width="125.024" height="104.792" viewBox="0 0 125.024 104.792">
  <g id="Colored" transform="translate(-117.1 -6)">
    <path id="Path_15" data-name="Path 15" d="M66.215,35.29h4.754v3.433H66.447V125.65a71.836,71.836,0,0,1,26.349-4.66,95.8,95.8,0,0,1,12.446.833q1.938.255,3.7.559l-2.028,8.232h-40.7a3.8,3.8,0,0,1-3.785-3.791V39.072A3.8,3.8,0,0,1,66.215,35.29Z" transform="translate(54.67 -19.831)" fill="#19164d"/>
    <path id="Path_16" data-name="Path 16" d="M189.137,204.343l-.517-4.563,1.737,2.3,4.457-1.666-3.136,3.775L193.2,206.4l-4.059-1.844Z" transform="translate(-30.768 -131.2)" fill="#19164d"/>
    <path id="Path_17" data-name="Path 17" d="M197.173,120.5l3.368,2.161a18,18,0,0,0-3.656,5.752l-3.446-2.525,1.23-3.091Z" transform="translate(-34.032 -77.523)" fill="#2eb3c0"/>
    <path id="Path_18" data-name="Path 18" d="M192.209,177.89a17.953,17.953,0,0,0,2.735,6.21l-4.783,1.779-1.967-2.839-.475-3.388Z" transform="translate(-30.159 -116.379)" fill="#2eb3c0"/>
    <path id="Path_19" data-name="Path 19" d="M202.68,205.294l3.423-4a17.962,17.962,0,0,0,2.542,2.487,4.863,4.863,0,0,1,1.747,2.874l-2.739,2.907-3.01-1.537Z" transform="translate(-40.288 -132.222)" fill="#2eb3c0"/>
    <path id="Path_20" data-name="Path 20" d="M221.064,102.21l1.909,3.275a17.933,17.933,0,0,0-5.9,3.229l-1.7-3.53,2.506-2.154Z" transform="translate(-48.879 -65.14)" fill="#2eb3c0"/>
    <path id="Path_21" data-name="Path 21" d="M168.2,217.427l-.278-3.523,2.945-2.054,2.987,1.537v.107l.22,0,.274,3.281-2.945,2.08Z" transform="translate(-16.753 -139.372)" fill="#ee8022"/>
    <path id="Path_22" data-name="Path 22" d="M185.917,225.731l-3.207-1.553,2.923-2.164-.007-.326-.245-2.868,4.7,2.267,2.842,4.521-2.958.052-.216,0-.213.31-1.647,2.793Z" transform="translate(-26.767 -144.091)" fill="#2eb3c0"/>
    <path id="Path_23" data-name="Path 23" d="M201.43,246.651l1.641-3.229,3.417-.061,0,.11,1.079,1.515-1.121,4.547-3.265.155Z" transform="translate(-39.441 -160.706)" fill="#ee8022"/>
    <path id="Path_24" data-name="Path 24" d="M161.97,188.77l-2.38-2.942,3.6-.475.191-.333,1.017-2.781,3.275,4.3.51,5.325-2.987-1.45-.213.22-2.952,1.75Z" transform="translate(-11.113 -119.324)" fill="#2eb3c0"/>
    <path id="Path_25" data-name="Path 25" d="M233.983,91.095v.355l-1.892.436-.107,4.876-2.425-4.2-2.538.568L230.165,90l.2.107,0-.11Z" transform="translate(-56.767 -56.873)" fill="#19164d"/>
    <path id="Path_26" data-name="Path 26" d="M182.744,135.545l-1.02,2.564-.707-4.447,0-.11,0-.087,3.565-2.826-1.024,2.564,3.882,2.8Z" transform="translate(-25.616 -84.388)" fill="#19164d"/>
    <path id="Path_27" data-name="Path 27" d="M200.048,105.96l4.47-.84-2.106,1.757,2.215,4.421-4.1-2.69-2.1,1.844,1.424-4.292v-.087Z" transform="translate(-37.41 -67.11)" fill="#19164d"/>
    <path id="Path_28" data-name="Path 28" d="M213.929,228.706l-2.419-3.785,2.374,1.327,2.48-2.648a.849.849,0,0,1-.036.171l-1.234,5-.946.039Z" transform="translate(-46.266 -147.328)" fill="#19164d"/>
    <path id="Path_29" data-name="Path 29" d="M242.209,69.09l.975.287v6.239l-2.574-.749,2.312-2.283-.006-.3Z" transform="translate(-65.968 -42.716)" fill="#2eb3c0"/>
    <path id="Path_30" data-name="Path 30" d="M246.745,98.14v3.875c-.294.039-.585.087-.875.139l.068-3.83Z" transform="translate(-69.53 -62.384)" fill="#2eb3c0"/>
    <path id="Path_31" data-name="Path 31" d="M176.433,169.055v-.107l0-.11,1.818-4.189.268,2.758,4.912.762-4.65,1.8.484,2.758Z" transform="translate(-22.515 -107.415)" fill="#19164d"/>
    <path id="Path_32" data-name="Path 32" d="M185.558,156.351l-.278-3.391,1.227-3.2,4.2.449a18.018,18.018,0,0,0-.6,4.618,18.456,18.456,0,0,0,.129,2.167Z" transform="translate(-28.507 -97.334)" fill="#2eb3c0"/>
    <path id="Path_33" data-name="Path 33" d="M206.733,75.48l.911,3.488.436.1,2.777.8-3.766,3.682L201.8,84.6l1.011-3.11-.223-.3-2.18-2.509,3.6-.717Z" transform="translate(-38.751 -47.042)" fill="#2eb3c0"/>
    <path id="Path_34" data-name="Path 34" d="M229.169,65.774l.694,3.494-2.506,2.264-3.213-.791-.914-3.6,2.506-2.374Z" transform="translate(-54.201 -39.791)" fill="#ee8022"/>
    <path id="Path_35" data-name="Path 35" d="M101.87,8.228V92.675a2.028,2.028,0,0,0,2.186,2.012c1.676-.113,3.362-.171,5.041-.171,10.483,0,19.616,1.321,27.557,3.995l1.56-6.326-.475-.365.995-1.75V90L136,90.153l-.646-.51-.646-.207-1.521-2.215-.817,1.712-1.292-.281,1.453-2.68-2.193-3.381-3.423-1.637L124.4,82.7l-.459-1.256,1.482-1.092-2.374-1.24-.229-.63-.646-.51-.265-2.651L120.468,76.4l-1.082-.849,2.516-1.744-.291-3.9-2.387-3.158-2.974.378.2-1.292,1.909-.252-1.734-2.19.2-.746L116.6,62l1.024-2.454-1.912.142-.646-1.166,3.171-.358,1.415-3.64-.481-3.82-3-1.1.83-1.082,1.938.73-.462-2.671.4-.646v-.743l2.1-1.725-1.712-.71-.023-1.292,2.981,1.121,2.936-2.513,1.208-3.711L124.4,34.041l1.253-.546,1.311,1.46.8-2.561.63-.355.423-.646,2.758-.484-1.314-1.566.614-1.075,1.957,2.316,4.034-.723,2.716-2.79L138.9,24.1l1.263.087.468,1.905,1.883-1.938.849.094.623-.446,2.561.8L146.1,22.7l1.253-.646.685,2.971,1.218.342V22.328l-.391.22-.885-.833,1.292-.7v-3.1a1.843,1.843,0,0,0-.019-.268h0a2.031,2.031,0,0,0-.846-1.4C138.421,9.346,125.542,6,109.1,6c-1.792,0-3.591.068-5.38.207a2.022,2.022,0,0,0-1.847,2.022Zm32.843,20.739.168-2.768,2.354,1.437-.6,1.938ZM131.3,27.637l2.483-3.656,4.269.142-.417,1.182-3.2-.052-1.844,2.793Zm-9.365,10.157,2.551.174.449,2.015-1.912.229ZM119.419,40.7l.358-4.36,3.992-1.986.239,1.256-2.955,1.557-.355,3.291Zm10.77,44.127-2.532.785.581-2.668,1.915-.142Zm-5.555-1.382,1.292-.132,1.124,3.158,3.191.685.023,1.292L126,87.456Zm-6.782-12.114,1.657-2.164,1.938.836-1.033,1.825Zm-2.338.888.578-4.363,1.053.5-.378,3.326,2.584,2.173-.607,1.188ZM117.775,55.7l-2.141-1.66,2.525-1.111,1.311,1.586Zm-4.5-1.938,2.506-3.552.865.943-2.086,2.69,1.34,3.178-1.072.765Z" transform="translate(27.967)" fill="#19164d"/>
    <path id="Path_36" data-name="Path 36" d="M186.858,86.41l2.377,2.722-1.2,3.22-3.4.8-2.377-2.722,1.008-3.414Z" transform="translate(-26.455 -54.442)" fill="#ee8022"/>
    <path id="Path_37" data-name="Path 37" d="M150.82,173.614l1.2-3.33,3.827-.375,1.744,2.735,0,.11-1.208,3.087-3.6.5Z" transform="translate(-5.176 -110.976)" fill="#ee8022"/>
    <path id="Path_38" data-name="Path 38" d="M172.747,103.13l2.4,2.613.413-.094,2.755-.594-1.611,5.035-4.185,3.362-.491-3.168-.2-.216-3-1.23,2.726-2.267Z" transform="translate(-17.363 -65.762)" fill="#2eb3c0"/>
    <path id="Path_39" data-name="Path 39" d="M157.42,143.636l3.439,1.224.194-.223,2.315-1.957.943,5.3-2.241,4.938-1.967-2.732-.213.113-3.391.278,1.421-3.333Z" transform="translate(-9.021 -92.54)" fill="#2eb3c0"/>
    <path id="Path_40" data-name="Path 40" d="M159.182,123.5l3.443,1.44.471,3.278,0,.11L160.59,130.5l-3.417-1.224-.714-3.491Z" transform="translate(-8.994 -79.554)" fill="#ee8022"/>
    <path id="Path_41" data-name="Path 41" d="M348.242,35.29h-4.754v3.433h4.521V125.65a71.836,71.836,0,0,0-26.349-4.66,95.8,95.8,0,0,0-12.446.833q-1.938.245-3.714.568l2.028,8.232h40.714a3.8,3.8,0,0,0,3.785-3.791V39.072a3.8,3.8,0,0,0-3.785-3.782Z" transform="translate(-109.903 -19.831)" fill="#19164d"/>
    <path id="Path_42" data-name="Path 42" d="M309.877,204.343l.517-4.563-1.737,2.3-4.457-1.666,3.133,3.775-1.518,2.215,4.059-1.844Z" transform="translate(-109.022 -131.2)" fill="#19164d"/>
    <path id="Path_43" data-name="Path 43" d="M299.938,120.5l-3.368,2.161a18,18,0,0,1,3.656,5.752l3.446-2.525-1.23-3.091Z" transform="translate(-103.857 -77.523)" fill="#2eb3c0"/>
    <path id="Path_44" data-name="Path 44" d="M304.645,177.89a17.952,17.952,0,0,1-2.735,6.21l4.783,1.779,1.967-2.839.475-3.388Z" transform="translate(-107.472 -116.379)" fill="#2eb3c0"/>
    <path id="Path_45" data-name="Path 45" d="M293.152,205.294l-3.423-4a17.961,17.961,0,0,1-2.541,2.487,4.863,4.863,0,0,0-1.747,2.874l2.739,2.907,3.01-1.537Z" transform="translate(-96.321 -132.222)" fill="#2eb3c0"/>
    <path id="Path_46" data-name="Path 46" d="M275,102.21l-1.909,3.275a17.934,17.934,0,0,1,5.9,3.229l1.7-3.53-2.506-2.154Z" transform="translate(-87.959 -65.14)" fill="#2eb3c0"/>
    <path id="Path_47" data-name="Path 47" d="M330.329,217.427l.278-3.523-2.945-2.054-2.987,1.537v.107l-.22,0-.274,3.281,2.945,2.08Z" transform="translate(-122.55 -139.372)" fill="#ee8022"/>
    <path id="Path_48" data-name="Path 48" d="M304.675,225.731l3.207-1.553-2.923-2.164.006-.326.245-2.868-4.7,2.267-2.842,4.521,2.958.052.216,0,.213.31,1.647,2.793Z" transform="translate(-104.601 -144.091)" fill="#2eb3c0"/>
    <path id="Path_49" data-name="Path 49" d="M297.7,246.651l-1.641-3.229-3.417-.061,0,.11-1.079,1.515,1.121,4.547,3.265.155Z" transform="translate(-100.464 -160.706)" fill="#ee8022"/>
    <path id="Path_50" data-name="Path 50" d="M332.007,188.77l2.38-2.942-3.6-.475-.191-.333-1.017-2.781-3.275,4.3-.51,5.325,2.987-1.45.213.22,2.952,1.75Z" transform="translate(-123.64 -119.324)" fill="#2eb3c0"/>
    <path id="Path_51" data-name="Path 51" d="M263.42,91.095v.355l1.889.436.11,4.876,2.425-4.2,2.538.568L267.237,90l-.2.107,0-.11Z" transform="translate(-81.412 -56.873)" fill="#19164d"/>
    <path id="Path_52" data-name="Path 52" d="M315.789,135.545l1.02,2.564.71-4.447v-.11l0-.087-3.565-2.826,1.024,2.564-3.882,2.8Z" transform="translate(-113.694 -84.388)" fill="#19164d"/>
    <path id="Path_53" data-name="Path 53" d="M298.959,105.96l-4.469-.84,2.106,1.757L294.38,111.3l4.1-2.69,2.1,1.844-1.424-4.292v-.087Z" transform="translate(-102.374 -67.11)" fill="#19164d"/>
    <path id="Path_54" data-name="Path 54" d="M287.895,228.706l2.419-3.785-2.374,1.327-2.48-2.648a.847.847,0,0,0,.036.171l1.234,5,.946.039Z" transform="translate(-96.334 -147.328)" fill="#19164d"/>
    <path id="Path_55" data-name="Path 55" d="M264.4,69.09l-.975.287v6.239l2.574-.749-2.312-2.283.006-.3Z" transform="translate(-81.412 -42.716)" fill="#2eb3c0"/>
    <path id="Path_56" data-name="Path 56" d="M263.42,98.14v3.875c.294.039.585.087.875.139l-.068-3.83Z" transform="translate(-81.412 -62.384)" fill="#2eb3c0"/>
    <path id="Path_57" data-name="Path 57" d="M320.895,169.055v-.107l0-.11-1.818-4.189-.268,2.758-4.912.762,4.65,1.8-.484,2.758Z" transform="translate(-115.59 -107.415)" fill="#19164d"/>
    <path id="Path_58" data-name="Path 58" d="M315.068,156.351l.278-3.391-1.227-3.2-4.2.449a18.016,18.016,0,0,1,.6,4.618,18.459,18.459,0,0,1-.129,2.167Z" transform="translate(-112.895 -97.334)" fill="#2eb3c0"/>
    <path id="Path_59" data-name="Path 59" d="M283.364,75.48l-.911,3.488-.436.1-2.777.8,3.766,3.682L288.3,84.6l-1.014-3.11.223-.3,2.18-2.509-3.6-.717Z" transform="translate(-92.123 -47.042)" fill="#2eb3c0"/>
    <path id="Path_60" data-name="Path 60" d="M268.924,65.774l-.694,3.494,2.506,2.264,3.213-.791.914-3.6-2.506-2.374Z" transform="translate(-84.669 -39.791)" fill="#ee8022"/>
    <path id="Path_61" data-name="Path 61" d="M308.952,6.207c-1.789-.139-3.588-.207-5.38-.207-16.444,0-29.307,3.346-39.286,10.224a2.031,2.031,0,0,0-.846,1.4h0a1.837,1.837,0,0,0-.019.268v3.1l1.276.7-.885.833-.391-.22v3.036l1.218-.342.685-2.971,1.253.646-.449,1.922,2.561-.8.623.446.849-.094,1.883,1.938.468-1.905,1.263-.087-.681,2.971,2.716,2.79,4.034.723,1.957-2.3.614,1.075L281.1,30.925l2.758.484.423.646.643.323.8,2.561,1.311-1.46,1.253.546-1.973,2.332,1.221,3.72,2.936,2.513,2.981-1.121-.023,1.292-1.725.7,2.106,1.734v.743l.4.646-.462,2.671,1.938-.73.83,1.082-3,1.124-.481,3.82,1.414,3.64,3.171.358-.646,1.166-1.912-.142,1.024,2.454-.229.646.2.746-1.734,2.19,1.909.252.2,1.292-2.974-.378-2.4,3.129-.291,3.914,2.516,1.744-1.082.84-1.466-1.085-.265,2.651-.646.51-.229.63-2.374,1.24L288.7,81.44l-.459,1.256-2.516-1.744-3.423,1.637-2.193,3.381,1.453,2.68-1.292.281-.817-1.712-1.521,2.215-.646.207-.646.51L273.906,90l.016.071.995,1.75-.475.365L276,98.51c7.941-2.674,17.074-3.995,27.557-3.995,1.679,0,3.365.058,5.041.171a2.028,2.028,0,0,0,2.186-2.012V8.228A2.022,2.022,0,0,0,308.952,6.207ZM276.031,29.575l-.6-1.938,2.354-1.437.168,2.768Zm4.047-1.528-1.844-2.8-3.2.052-.417-1.182,4.269-.142,2.483,3.659Zm9.578,12.162-1.912-.229.449-2.015,2.551-.174Zm2.325.258-.355-3.291-2.955-1.557.239-1.256,4,1.993.358,4.36Zm-9.449,42.344,1.915.142.581,2.668-2.532-.785Zm4.163,4.644-4.263.991.023-1.292,3.191-.685,1.124-3.158,1.292.132Zm5.587-15.618-1.033-1.825,1.938-.836,1.657,2.164Zm1.641,3.21-.6-1.188,2.584-2.173-.355-3.317,1.053-.5.578,4.363Zm-.7-20.52,1.311-1.586,2.525,1.111-2.125,1.66Zm4.618,3.262-1.05-.765,1.34-3.178-2.086-2.69.866-.943,2.506,3.552Z" transform="translate(-81.412)" fill="#19164d"/>
    <path id="Path_62" data-name="Path 62" d="M310.5,86.41l-2.377,2.722,1.2,3.22,3.4.8,2.377-2.722L314.1,87.017Z" transform="translate(-111.677 -54.442)" fill="#ee8022"/>
    <path id="Path_63" data-name="Path 63" d="M346.975,173.614l-1.2-3.33-3.827-.375-1.747,2.735v.11l1.208,3.087,3.6.5Z" transform="translate(-133.396 -110.976)" fill="#ee8022"/>
    <path id="Path_64" data-name="Path 64" d="M319.361,103.13l-2.4,2.613-.413-.094-2.751-.594,1.608,5.035,4.185,3.362.491-3.168.2-.216,3-1.23-2.726-2.267Z" transform="translate(-115.522 -65.762)" fill="#2eb3c0"/>
    <path id="Path_65" data-name="Path 65" d="M338.2,143.636l-3.439,1.224-.194-.223-2.315-1.957-.943,5.3,2.241,4.938,1.964-2.732.216.113,3.391.278L337.7,147.24Z" transform="translate(-127.377 -92.54)" fill="#2eb3c0"/>
    <path id="Path_66" data-name="Path 66" d="M338.9,123.5l-3.443,1.44-.471,3.278,0,.11,2.509,2.177,3.417-1.224.714-3.491Z" transform="translate(-129.862 -79.554)" fill="#ee8022"/>
  </g>
</svg>
