<svg xmlns="http://www.w3.org/2000/svg" width="102.324" height="106.783" viewBox="0 0 102.324 106.783">
  <g id="Colored" transform="translate(-16.44 -6)">
    <path id="Path_1" data-name="Path 1" d="M107.739,385.212a5.038,5.038,0,0,1-1.849-1.019l.592-1.249a4.94,4.94,0,0,0,1.642.938,6.071,6.071,0,0,0,2.061.361,3.7,3.7,0,0,0,2.082-.474,1.457,1.457,0,0,0,.69-1.258,1.239,1.239,0,0,0-.378-.938,2.516,2.516,0,0,0-.929-.553,16.066,16.066,0,0,0-1.561-.427,15.972,15.972,0,0,1-2.044-.609,3.417,3.417,0,0,1-1.331-.938,2.5,2.5,0,0,1-.553-1.709,2.9,2.9,0,0,1,.472-1.619,3.257,3.257,0,0,1,1.435-1.153,5.822,5.822,0,0,1,2.388-.427,7.581,7.581,0,0,1,1.956.256,5.226,5.226,0,0,1,1.651.737l-.53,1.281a5.838,5.838,0,0,0-1.506-.681,5.688,5.688,0,0,0-1.572-.233,3.464,3.464,0,0,0-2.044.5,1.523,1.523,0,0,0-.679,1.281,1.226,1.226,0,0,0,.384.938,2.656,2.656,0,0,0,.953.562,14.688,14.688,0,0,0,1.546.427,15.681,15.681,0,0,1,2.035.609,3.417,3.417,0,0,1,1.322.929,2.445,2.445,0,0,1,.553,1.683,2.862,2.862,0,0,1-.481,1.61,3.225,3.225,0,0,1-1.459,1.155,6.051,6.051,0,0,1-2.4.427A7.714,7.714,0,0,1,107.739,385.212Z" transform="translate(-70.346 -289.514)" fill="#19164d"/>
    <path id="Path_2" data-name="Path 2" d="M165.431,384.492v1.395H157.29V374.67h7.917v1.392h-6.315v3.447h5.625v1.363h-5.625V384.5Z" transform="translate(-110.769 -289.934)" fill="#19164d"/>
    <path id="Path_3" data-name="Path 3" d="M205.915,384.8a5.465,5.465,0,0,1-2.136-2.05,6.01,6.01,0,0,1,0-5.882,5.453,5.453,0,0,1,2.136-2.05,6.232,6.232,0,0,1,3.045-.745,6.349,6.349,0,0,1,2.4.44,4.912,4.912,0,0,1,1.858,1.307l-1.032,1.014a4.18,4.18,0,0,0-3.157-1.331,4.577,4.577,0,0,0-2.26.562,4.058,4.058,0,0,0-1.578,1.546,4.545,4.545,0,0,0,0,4.408,4.058,4.058,0,0,0,1.578,1.546,4.577,4.577,0,0,0,2.26.562,4.19,4.19,0,0,0,3.157-1.354l1.042,1.01a4.994,4.994,0,0,1-1.867,1.313,6.321,6.321,0,0,1-2.411.448A6.176,6.176,0,0,1,205.915,384.8Z" transform="translate(-146.725 -289.46)" fill="#19164d"/>
    <path id="Path_4" data-name="Path 4" d="M269.075,385.887l-2.42-3.445q-.449.032-.7.032h-2.776v3.417h-1.6V374.67h4.376a5.2,5.2,0,0,1,3.428,1.04,3.561,3.561,0,0,1,1.258,2.875,3.75,3.75,0,0,1-.641,2.21,3.631,3.631,0,0,1-1.828,1.331l2.661,3.765Zm-.854-5.433a2.586,2.586,0,0,0,0-3.742,3.649,3.649,0,0,0-2.324-.641h-2.719v5.049H265.9a3.6,3.6,0,0,0,2.324-.666Z" transform="translate(-192.778 -289.934)" fill="#19164d"/>
    <path id="Path_5" data-name="Path 5" d="M324.281,384.492v1.395H316.14V374.67h7.917v1.392h-6.313v3.447h5.627v1.363h-5.627V384.5Z" transform="translate(-235.694 -289.934)" fill="#19164d"/>
    <path id="Path_6" data-name="Path 6" d="M362.694,376.062H358.85V374.67h9.279v1.392h-3.844v9.824H362.7Z" transform="translate(-269.283 -289.934)" fill="#19164d"/>
    <path id="Path_7" data-name="Path 7" d="M27.112,452.42v11.229H23.94v-4.387H19.614v4.387H16.44V452.42h3.174v4.216H23.94V452.42Z" transform="translate(0 -351.08)" fill="#19164d"/>
    <path id="Path_8" data-name="Path 8" d="M79.481,461.458H74.738l-.882,2.191H70.62l4.95-11.229H78.7l4.968,11.229h-3.3Zm-.929-2.339-1.444-3.586-1.444,3.59Z" transform="translate(-42.609 -351.08)" fill="#19164d"/>
    <path id="Path_9" data-name="Path 9" d="M146.574,452.42v11.229h-2.612l-4.953-5.98v5.98H135.9V452.42h2.612l4.953,5.98v-5.98Z" transform="translate(-93.947 -351.08)" fill="#19164d"/>
    <path id="Path_10" data-name="Path 10" d="M196.38,452.415h5.3a7.438,7.438,0,0,1,3.27.69,5.188,5.188,0,0,1,2.21,1.954,5.98,5.98,0,0,1,0,5.931,5.188,5.188,0,0,1-2.21,1.954,7.438,7.438,0,0,1-3.27.7h-5.3Zm5.177,8.686a3.255,3.255,0,0,0,2.315-.816,3.362,3.362,0,0,0,0-4.521,3.216,3.216,0,0,0-2.315-.816h-2V461.1Z" transform="translate(-141.511 -351.075)" fill="#19164d"/>
    <path id="Path_11" data-name="Path 11" d="M268.489,458.838a2.76,2.76,0,0,1,.545,1.724,2.586,2.586,0,0,1-1.185,2.277,6.069,6.069,0,0,1-3.43.812H258.36V452.42H264.1a5.666,5.666,0,0,1,3.27.794,2.486,2.486,0,0,1,1.121,2.136,2.657,2.657,0,0,1-.393,1.435,2.742,2.742,0,0,1-1.113,1A3.15,3.15,0,0,1,268.489,458.838Zm-6.988-4.126v2.163h2.181q1.6,0,1.6-1.089t-1.6-1.068Zm4.327,5.5q0-1.138-1.666-1.138H261.5v2.277h2.661Q265.828,461.347,265.828,460.209Z" transform="translate(-190.254 -351.08)" fill="#19164d"/>
    <path id="Path_12" data-name="Path 12" d="M316.271,462.283a5.734,5.734,0,0,1,0-10.159,7.157,7.157,0,0,1,6.394,0,5.734,5.734,0,0,1,0,10.159A7.157,7.157,0,0,1,316.271,462.283Zm4.735-2.275a2.889,2.889,0,0,0,1.089-1.13,3.7,3.7,0,0,0,0-3.351,2.89,2.89,0,0,0-1.089-1.13,3.165,3.165,0,0,0-3.078,0,2.89,2.89,0,0,0-1.089,1.13,3.714,3.714,0,0,0,0,3.351,2.889,2.889,0,0,0,1.089,1.13A3.165,3.165,0,0,0,321.006,460.009Z" transform="translate(-233.38 -350.254)" fill="#19164d"/>
    <path id="Path_13" data-name="Path 13" d="M379.751,462.283a5.734,5.734,0,0,1,0-10.159,7.157,7.157,0,0,1,6.394,0,5.734,5.734,0,0,1,0,10.159A7.157,7.157,0,0,1,379.751,462.283Zm4.735-2.275a2.894,2.894,0,0,0,1.091-1.13,3.714,3.714,0,0,0,0-3.351,2.894,2.894,0,0,0-1.091-1.13,3.161,3.161,0,0,0-3.075,0,2.879,2.879,0,0,0-1.091,1.13,3.714,3.714,0,0,0,0,3.351,2.879,2.879,0,0,0,1.091,1.13A3.161,3.161,0,0,0,384.486,460.009Z" transform="translate(-283.303 -350.254)" fill="#19164d"/>
    <path id="Path_14" data-name="Path 14" d="M447.333,459.568l-1.185,1.266v2.815H443V452.42h3.142v4.664l4.344-4.664h3.494l-4.572,4.968,4.818,6.262h-3.686Z" transform="translate(-335.461 -351.08)" fill="#19164d"/>
    <path id="Path_15" data-name="Path 15" d="M64.933,35.29h3.144v2.27h-2.99V95.046a47.506,47.506,0,0,1,17.425-3.082,63.352,63.352,0,0,1,8.231.551q1.281.169,2.45.369l-1.341,5.444H64.933a2.509,2.509,0,0,1-2.5-2.507V37.791A2.509,2.509,0,0,1,64.933,35.29Z" transform="translate(-36.168 -23.035)" fill="#19164d"/>
    <path id="Path_16" data-name="Path 16" d="M188.962,202.8l-.342-3.018,1.149,1.521,2.947-1.1-2.074,2.5,1.006,1.465-2.685-1.219Z" transform="translate(-135.408 -152.395)" fill="#19164d"/>
    <path id="Path_17" data-name="Path 17" d="M195.909,120.5l2.228,1.429a11.9,11.9,0,0,0-2.418,3.8l-2.279-1.67.814-2.044Z" transform="translate(-139.199 -90.047)" fill="#2eb3c0"/>
    <path id="Path_18" data-name="Path 18" d="M190.689,177.89A11.872,11.872,0,0,0,192.5,182l-3.163,1.177-1.3-1.877-.314-2.24Z" transform="translate(-134.7 -135.18)" fill="#2eb3c0"/>
    <path id="Path_19" data-name="Path 19" d="M202.68,203.938l2.264-2.648a11.878,11.878,0,0,0,1.681,1.644,3.216,3.216,0,0,1,1.155,1.9l-1.811,1.922-1.99-1.017Z" transform="translate(-146.465 -153.583)" fill="#2eb3c0"/>
    <path id="Path_20" data-name="Path 20" d="M219.135,102.21l1.262,2.166a11.86,11.86,0,0,0-3.9,2.136l-1.123-2.334,1.657-1.424Z" transform="translate(-156.445 -75.663)" fill="#2eb3c0"/>
    <path id="Path_21" data-name="Path 21" d="M168.1,215.538l-.184-2.33,1.948-1.358,1.975,1.017v.07l.145,0,.182,2.17-1.948,1.375Z" transform="translate(-119.129 -161.887)" fill="#ee8022"/>
    <path id="Path_22" data-name="Path 22" d="M184.831,223.39l-2.121-1.027,1.933-1.431,0-.216-.162-1.9,3.107,1.5,1.879,2.99-1.956.034-.143,0-.141.205-1.089,1.847Z" transform="translate(-130.76 -167.369)" fill="#2eb3c0"/>
    <path id="Path_23" data-name="Path 23" d="M201.43,245.536l1.085-2.136,2.26-.041,0,.073.713,1-.741,3.007-2.159.1Z" transform="translate(-145.482 -186.668)" fill="#ee8022"/>
    <path id="Path_24" data-name="Path 24" d="M161.164,186.558l-1.574-1.946,2.383-.314.126-.22.673-1.839,2.166,2.84.337,3.522-1.975-.959-.141.145-1.952,1.158Z" transform="translate(-112.578 -138.601)" fill="#2eb3c0"/>
    <path id="Path_25" data-name="Path 25" d="M231.625,90.724v.235l-1.252.288-.07,3.225-1.6-2.779-1.679.376L229.1,90l.13.07,0-.073Z" transform="translate(-165.607 -66.06)" fill="#19164d"/>
    <path id="Path_26" data-name="Path 26" d="M182.157,133.884l-.675,1.7-.468-2.941,0-.073,0-.058,2.358-1.869-.677,1.7,2.567,1.854Z" transform="translate(-129.423 -98.021)" fill="#19164d"/>
    <path id="Path_27" data-name="Path 27" d="M199.5,105.675l2.956-.555-1.392,1.162,1.465,2.924-2.71-1.779-1.388,1.219.942-2.838v-.058Z" transform="translate(-143.123 -77.951)" fill="#19164d"/>
    <path id="Path_28" data-name="Path 28" d="M213.11,226.976l-1.6-2.5,1.57.878,1.64-1.751a.563.563,0,0,1-.023.113l-.816,3.308-.626.026Z" transform="translate(-153.41 -171.128)" fill="#19164d"/>
    <path id="Path_29" data-name="Path 29" d="M241.667,69.09l.645.19v4.126l-1.7-.5,1.529-1.51,0-.2Z" transform="translate(-176.295 -49.616)" fill="#2eb3c0"/>
    <path id="Path_30" data-name="Path 30" d="M246.449,98.14V100.7c-.194.026-.387.058-.579.092l.045-2.533Z" transform="translate(-180.431 -72.462)" fill="#2eb3c0"/>
    <path id="Path_31" data-name="Path 31" d="M176.432,167.563v-.07l0-.073,1.2-2.77.177,1.824,3.248.5-3.075,1.192.32,1.824Z" transform="translate(-125.822 -124.768)" fill="#19164d"/>
    <path id="Path_32" data-name="Path 32" d="M185.464,154.119l-.184-2.242.812-2.116,2.776.3a11.915,11.915,0,0,0-.4,3.054,12.206,12.206,0,0,0,.085,1.433Z" transform="translate(-132.781 -113.058)" fill="#2eb3c0"/>
    <path id="Path_33" data-name="Path 33" d="M204.592,75.48l.6,2.307.288.066,1.837.53-2.49,2.435-3.5.694L202,79.454l-.147-.2L200.41,77.6l2.381-.474Z" transform="translate(-144.68 -54.641)" fill="#2eb3c0"/>
    <path id="Path_34" data-name="Path 34" d="M227.158,65.434l.459,2.311-1.657,1.5-2.125-.523-.6-2.379,1.657-1.57Z" transform="translate(-162.627 -46.219)" fill="#ee8022"/>
    <path id="Path_35" data-name="Path 35" d="M101.87,7.474V63.319a1.341,1.341,0,0,0,1.446,1.331c1.108-.075,2.223-.113,3.334-.113a56.952,56.952,0,0,1,18.224,2.642l1.032-4.184-.314-.241.658-1.158v-.047l-1.811.1-.427-.337-.427-.137-1.006-1.465-.54,1.132-.854-.186.961-1.773-1.45-2.236-2.264-1.083-1.664,1.153-.3-.831.98-.722-1.57-.82-.152-.416-.427-.337-.175-1.753-.95.718L113.454,52l1.664-1.153-.192-2.582-1.578-2.089-1.967.25.13-.854,1.262-.167-1.147-1.448.135-.493-.152-.427.677-1.623-1.264.094-.427-.771,2.1-.237.935-2.407-.318-2.526-1.986-.73.549-.715,1.281.483-.305-1.766.265-.427v-.491l1.386-1.14-1.132-.47-.015-.854,1.971.741,1.941-1.662.8-2.454-1.294-1.531.829-.361.867.965.53-1.694.416-.235.28-.427,1.824-.32-.869-1.036.406-.711,1.294,1.531,2.667-.478,1.8-1.845-.451-1.965.835.058.31,1.26L128.747,18l.562.062.412-.295,1.694.532-.3-1.262.829-.427.453,1.965.805.226V16.8l-.258.145-.585-.551.854-.466v-2.05a1.22,1.22,0,0,0-.013-.177h0a1.343,1.343,0,0,0-.56-.925C126.041,8.213,117.524,6,106.65,6c-1.185,0-2.375.045-3.558.137a1.337,1.337,0,0,0-1.222,1.337Zm21.72,13.715.111-1.83,1.557.95-.4,1.281Zm-2.257-.88,1.642-2.418,2.823.094-.275.782-2.116-.034-1.219,1.847Zm-6.193,6.717,1.687.115.3,1.333-1.264.152Zm-1.664,1.922.237-2.883,2.64-1.313.158.831-1.954,1.029-.235,2.176ZM120.6,58.129l-1.674.519.384-1.764,1.266-.094Zm-3.673-.914.854-.088.743,2.089,2.11.453.015.854-2.819-.656ZM112.439,49.2l1.1-1.431,1.281.553-.683,1.207Zm-1.546.587.382-2.885.7.333-.25,2.2,1.709,1.437-.4.786Zm1.495-10.922-1.416-1.1,1.67-.735.867,1.049Zm-2.975-1.281,1.657-2.349.572.624-1.38,1.779.886,2.1-.709.506Z" transform="translate(-67.185)" fill="#19164d"/>
    <path id="Path_36" data-name="Path 36" d="M185.3,86.41l1.572,1.8-.8,2.129-2.251.53-1.572-1.8.666-2.257Z" transform="translate(-130.399 -63.237)" fill="#ee8022"/>
    <path id="Path_37" data-name="Path 37" d="M150.82,172.36l.794-2.2,2.531-.248,1.153,1.809,0,.073-.8,2.042-2.383.331Z" transform="translate(-105.681 -128.904)" fill="#ee8022"/>
    <path id="Path_38" data-name="Path 38" d="M171.417,103.13,173,104.858l.273-.062,1.822-.393-1.066,3.329-2.768,2.223-.325-2.1-.132-.143-1.986-.814,1.8-1.5Z" transform="translate(-119.837 -76.386)" fill="#2eb3c0"/>
    <path id="Path_39" data-name="Path 39" d="M157.109,143.312l2.274.809.128-.147,1.531-1.294.624,3.5-1.482,3.265-1.3-1.807-.141.075-2.242.184.94-2.2Z" transform="translate(-110.148 -107.49)" fill="#2eb3c0"/>
    <path id="Path_40" data-name="Path 40" d="M158.26,123.5l2.277.953.312,2.168,0,.073-1.659,1.439-2.26-.809-.472-2.309Z" transform="translate(-110.116 -92.406)" fill="#ee8022"/>
    <path id="Path_41" data-name="Path 41" d="M333.766,35.29h-3.144v2.27h2.99V95.046a47.506,47.506,0,0,0-17.425-3.082,63.352,63.352,0,0,0-8.231.551q-1.281.162-2.456.376l1.341,5.444h26.924a2.509,2.509,0,0,0,2.5-2.507V37.791a2.509,2.509,0,0,0-2.5-2.5Z" transform="translate(-227.326 -23.035)" fill="#19164d"/>
    <path id="Path_42" data-name="Path 42" d="M307.954,202.8l.342-3.018-1.149,1.521-2.947-1.1,2.072,2.5-1,1.465,2.685-1.219Z" transform="translate(-226.304 -152.395)" fill="#19164d"/>
    <path id="Path_43" data-name="Path 43" d="M298.8,120.5l-2.227,1.429a11.9,11.9,0,0,1,2.418,3.8l2.279-1.67-.814-2.044Z" transform="translate(-220.304 -90.047)" fill="#2eb3c0"/>
    <path id="Path_44" data-name="Path 44" d="M303.719,177.89A11.872,11.872,0,0,1,301.91,182l3.163,1.177,1.3-1.877.314-2.24Z" transform="translate(-224.503 -135.18)" fill="#2eb3c0"/>
    <path id="Path_45" data-name="Path 45" d="M290.54,203.938l-2.264-2.648a11.877,11.877,0,0,1-1.681,1.644,3.216,3.216,0,0,0-1.155,1.9l1.811,1.922,1.99-1.017Z" transform="translate(-211.551 -153.583)" fill="#2eb3c0"/>
    <path id="Path_46" data-name="Path 46" d="M274.352,102.21l-1.262,2.166a11.86,11.86,0,0,1,3.9,2.136l1.123-2.334-1.657-1.424Z" transform="translate(-201.838 -75.663)" fill="#2eb3c0"/>
    <path id="Path_47" data-name="Path 47" d="M328.246,215.538l.184-2.33-1.948-1.358-1.975,1.017v.07l-.145,0-.182,2.17,1.948,1.375Z" transform="translate(-242.017 -161.887)" fill="#ee8022"/>
    <path id="Path_48" data-name="Path 48" d="M302.3,223.39l2.121-1.027-1.933-1.431,0-.216.162-1.9-3.107,1.5-1.879,2.99,1.956.034.143,0,.141.205L301,225.4Z" transform="translate(-221.169 -167.369)" fill="#2eb3c0"/>
    <path id="Path_49" data-name="Path 49" d="M295.62,245.536l-1.085-2.136-2.26-.041,0,.073-.713,1,.741,3.007,2.159.1Z" transform="translate(-216.364 -186.668)" fill="#ee8022"/>
    <path id="Path_50" data-name="Path 50" d="M329.9,186.558l1.574-1.946-2.383-.314-.126-.22-.673-1.839-2.166,2.84-.337,3.522,1.975-.959.141.145,1.952,1.158Z" transform="translate(-243.283 -138.601)" fill="#2eb3c0"/>
    <path id="Path_51" data-name="Path 51" d="M263.42,90.724v.235l1.249.288.073,3.225,1.6-2.779,1.679.376L265.944,90l-.13.07,0-.073Z" transform="translate(-194.233 -66.06)" fill="#19164d"/>
    <path id="Path_52" data-name="Path 52" d="M314.2,133.884l.675,1.7.47-2.941v-.073l0-.058-2.358-1.869.677,1.7-2.567,1.854Z" transform="translate(-231.731 -98.021)" fill="#19164d"/>
    <path id="Path_53" data-name="Path 53" d="M297.408,105.675l-2.956-.555,1.392,1.162-1.465,2.924,2.71-1.779,1.388,1.219-.942-2.838v-.058Z" transform="translate(-218.581 -77.951)" fill="#19164d"/>
    <path id="Path_54" data-name="Path 54" d="M287.07,226.976l1.6-2.5-1.57.878-1.64-1.751a.56.56,0,0,0,.023.113l.816,3.308.626.026Z" transform="translate(-211.566 -171.128)" fill="#19164d"/>
    <path id="Path_55" data-name="Path 55" d="M264.065,69.09l-.645.19v4.126l1.7-.5-1.529-1.51,0-.2Z" transform="translate(-194.233 -49.616)" fill="#2eb3c0"/>
    <path id="Path_56" data-name="Path 56" d="M263.42,98.14V100.7c.194.026.387.058.579.092l-.045-2.533Z" transform="translate(-194.233 -72.462)" fill="#2eb3c0"/>
    <path id="Path_57" data-name="Path 57" d="M318.526,167.563v-.07l0-.073-1.2-2.77-.177,1.824-3.248.5,3.075,1.192-.32,1.824Z" transform="translate(-233.933 -124.768)" fill="#19164d"/>
    <path id="Path_58" data-name="Path 58" d="M313.324,154.119l.184-2.242-.812-2.116-2.776.3a11.914,11.914,0,0,1,.4,3.054,12.2,12.2,0,0,1-.085,1.433Z" transform="translate(-230.803 -113.058)" fill="#2eb3c0"/>
    <path id="Path_59" data-name="Path 59" d="M281.967,75.48l-.6,2.307-.288.066-1.837.53,2.49,2.435,3.5.694-.671-2.057.147-.2,1.442-1.659-2.381-.474Z" transform="translate(-206.675 -54.641)" fill="#2eb3c0"/>
    <path id="Path_60" data-name="Path 60" d="M268.689,65.434l-.459,2.311,1.657,1.5,2.125-.523.6-2.379-1.657-1.57Z" transform="translate(-198.016 -46.219)" fill="#ee8022"/>
    <path id="Path_61" data-name="Path 61" d="M293.531,6.137C292.348,6.045,291.158,6,289.973,6c-10.875,0-19.381,2.213-25.98,6.762a1.343,1.343,0,0,0-.56.927h0a1.218,1.218,0,0,0-.013.177v2.05l.844.466-.585.551-.258-.145v2.008l.805-.226.453-1.965.829.427-.3,1.271,1.694-.532.412.295.562-.062,1.245,1.281.31-1.26.835-.058-.451,1.965,1.8,1.845,2.667.478,1.294-1.518.406.711-.869,1.036,1.824.32.28.427.425.214.53,1.694.867-.965.829.361-1.3,1.542.807,2.46,1.941,1.662,1.971-.741-.015.854-1.14.463,1.392,1.147v.491l.265.427-.305,1.766,1.281-.483.549.715-1.984.743L283,38.108l.935,2.407,2.1.237-.427.771-1.264-.094.677,1.623-.152.427.135.493-1.147,1.448,1.262.167.13.854-1.967-.25L281.7,48.261l-.192,2.588L283.168,52l-.715.555-.97-.718-.175,1.753-.427.337-.152.416-1.57.82.98.722-.3.831-1.664-1.153-2.264,1.083-1.45,2.236.961,1.773-.854.186-.54-1.132-1.006,1.465-.427.137-.427.337-1.811-.1.011.047.658,1.158-.314.241,1.032,4.184a56.952,56.952,0,0,1,18.224-2.642c1.111,0,2.225.038,3.334.113a1.341,1.341,0,0,0,1.446-1.331V7.474A1.337,1.337,0,0,0,293.531,6.137ZM271.76,21.59l-.4-1.281,1.557-.95.111,1.83Zm2.676-1.01-1.219-1.849-2.116.034-.275-.782,2.823-.094,1.642,2.42Zm6.334,8.043-1.264-.152.3-1.333,1.687-.115Zm1.538.171-.235-2.176-1.954-1.029.158-.831,2.644,1.318.237,2.883Zm-6.249,28,1.266.094.384,1.764-1.674-.519Zm2.753,3.071-2.819.656.015-.854,2.11-.453.743-2.089.854.088Zm3.695-10.328-.683-1.207,1.281-.553,1.1,1.431Zm1.085,2.123-.4-.786,1.709-1.437-.235-2.193.7-.333.382,2.885Zm-.463-13.57.867-1.049,1.67.735-1.405,1.1Zm3.054,2.157-.694-.506.886-2.1-1.38-1.779.572-.624,1.657,2.349Z" transform="translate(-194.233)" fill="#19164d"/>
    <path id="Path_62" data-name="Path 62" d="M309.692,86.41l-1.572,1.8.8,2.129,2.251.53,1.572-1.8-.666-2.257Z" transform="translate(-229.387 -63.237)" fill="#ee8022"/>
    <path id="Path_63" data-name="Path 63" d="M344.681,172.36l-.794-2.2-2.531-.248-1.155,1.809v.073l.8,2.042,2.383.331Z" transform="translate(-254.616 -128.904)" fill="#ee8022"/>
    <path id="Path_64" data-name="Path 64" d="M317.478,103.13l-1.585,1.728-.273-.062-1.82-.393,1.064,3.329,2.768,2.223.325-2.1.132-.143,1.986-.814-1.8-1.5Z" transform="translate(-233.854 -76.386)" fill="#2eb3c0"/>
    <path id="Path_65" data-name="Path 65" d="M335.867,143.312l-2.274.809-.128-.147-1.531-1.294-.624,3.5,1.482,3.265,1.3-1.807.143.075,2.242.184-.94-2.2Z" transform="translate(-247.624 -107.49)" fill="#2eb3c0"/>
    <path id="Path_66" data-name="Path 66" d="M337.571,123.5l-2.277.953-.312,2.168,0,.073,1.659,1.439,2.26-.809.472-2.309Z" transform="translate(-250.511 -92.406)" fill="#ee8022"/>
  </g>
</svg>
