<svg id="Layer_1" data-name="Layer 1"
    xmlns="http://www.w3.org/2000/svg" width="102.324" height="106.783" viewBox="0 0 512 452.57">
    <title>Colored</title>
    <path id="Path_15" data-name="Path 15" d="M144.23,89.42h9V96h-8.61V261.4a136.73,136.73,0,0,1,50.15-8.87,180.59,180.59,0,0,1,23.69,1.59c2.46.32,4.81.68,7.05,1.06l-3.86,15.67H144.23a7.22,7.22,0,0,1-7.21-7.22v-167A7.21,7.21,0,0,1,144.23,89.42Z" style="fill:#19164d"/>
    <path id="Path_16" data-name="Path 16" d="M215.57,199.21l-1-8.69,3.31,4.38,8.48-3.17-6,7.19,2.9,4.21-7.73-3.51Z" style="fill:#19164d"/>
    <path id="Path_17" data-name="Path 17" d="M224.65,141.79l6.41,4.11a34.39,34.39,0,0,0-6.95,10.95L217.55,152l2.34-5.88Z" style="fill:#2eb3c0"/>
    <path id="Path_18" data-name="Path 18" d="M222.58,177.07a34.12,34.12,0,0,0,5.2,11.82l-9.1,3.38-3.74-5.4-.91-6.45Z" style="fill:#2eb3c0"/>
    <path id="Path_19" data-name="Path 19" d="M223.23,199.07l6.51-7.62a33.82,33.82,0,0,0,4.84,4.73,9.32,9.32,0,0,1,3.33,5.47l-5.22,5.54L227,204.26Z" style="fill:#2eb3c0"/>
    <path id="Path_20" data-name="Path 20" d="M241.86,130.55l3.63,6.23a34,34,0,0,0-11.23,6.15L231,136.21l4.78-4.1Z" style="fill:#2eb3c0"/>
    <path id="Path_21" data-name="Path 21" d="M202.39,208.56l-.53-6.71,5.6-3.91,5.69,2.93v.2h.42l.51,6.24-5.6,4Z" style="fill:#ee8022"/>
    <path id="Path_22" data-name="Path 22" d="M217.06,215.38l-6.11-3,5.56-4.12v-.62l-.47-5.46,8.94,4.32,5.41,8.6-5.63.1h-.42l-.4.6-3.14,5.31Z" style="fill:#2eb3c0"/>
    <path id="Path_23" data-name="Path 23" d="M222.46,223.57l3.12-6.14,6.5-.12v.21l2.06,2.88L232,229.05l-6.21.3Z" style="fill:#ee8022"/>
    <path id="Path_24" data-name="Path 24" d="M201.27,192.17l-4.53-5.6,6.86-.91L204,185l1.95-5.29,6.22,8.17,1,10.14-5.68-2.76-.41.42L201.4,199Z" style="fill:#2eb3c0"/>
    <path id="Path_25" data-name="Path 25" d="M252.33,125.65l-.89.15-3.6.83-.21,9.29-4.61-8L238.19,129l6-6Z" style="fill:#19164d"/>
    <path id="Path_25-2" data-name="Path 25" d="M268,123l6,6-4.84-1.08-4.61,8-.2-9.29-3.6-.83-.89-.15Z" style="fill:#19164d"/>
    <path id="Path_26" data-name="Path 26" d="M213.21,157.36l-2,4.88-1.35-8.46v-.38l6.78-5.37-1.95,4.88,7.39,5.34Z" style="fill:#19164d"/>
    <path id="Path_27" data-name="Path 27" d="M223.69,133.94l8.51-1.6-4,3.34,4.22,8.42-7.8-5.12-4,3.51,2.71-8.17v-.17Z" style="fill:#19164d"/>
    <path id="Path_28" data-name="Path 28" d="M233.26,214.88l-4.61-7.2,4.52,2.52,4.72-5a1.94,1.94,0,0,1-.07.33L235.47,215l-1.79.08Z" style="fill:#19164d"/>
    <path id="Path_31" data-name="Path 31" d="M207.09,177.31v-.41l3.46-8,.51,5.25,9.35,1.45-8.85,3.43.92,5.25Z" style="fill:#19164d"/>
    <path id="Path_32" data-name="Path 32" d="M213.06,172.32l-.53-6.45,2.34-6.09,8,.85a34.34,34.34,0,0,0-1.17,8.79,35.33,35.33,0,0,0,.26,4.12Z" style="fill:#2eb3c0"/>
    <path id="Path_33" data-name="Path 33" d="M233.86,114.12l1.74,6.64.83.19,5.28,1.53-7.15,7-10.07,2,1.92-5.92L226,125l-4.15-4.78,6.85-1.36Z" style="fill:#2eb3c0"/>
    <path id="Path_34" data-name="Path 34" d="M247.16,109.45l1.32,6.65-4.77,4.31-6.11-1.51-1.74-6.84,4.77-4.52Z" style="fill:#ee8022"/>
    <path id="Path_36" data-name="Path 36" d="M219.44,120.84,224,126l-2.29,6.13-6.48,1.53-4.52-5.19,1.92-6.49Z" style="fill:#ee8022"/>
    <path id="Path_37" data-name="Path 37" d="M191.35,179.21l2.29-6.34,7.28-.71,3.31,5.21v.21l-2.29,5.87-6.85,1Z" style="fill:#ee8022"/>
    <path id="Path_38" data-name="Path 38" d="M209.89,131.11l4.56,5,.78-.18,5.26-1.13-3.08,9.57-8,6.41-.92-6-.38-.41L202.41,142l5.19-4.31Z" style="fill:#2eb3c0"/>
    <path id="Path_39" data-name="Path 39" d="M196.59,157.25l6.55,2.33.36-.43,4.42-3.72,1.79,10.08-4.26,9.39-3.75-5.19-.4.21-6.46.53,2.71-6.35Z" style="fill:#2eb3c0"/>
    <path id="Path_40" data-name="Path 40" d="M200,143.64l6.55,2.74.9,6.24v.21L202.68,157l-6.5-2.33L194.82,148Z" style="fill:#ee8022"/>
    <path id="Path_41" data-name="Path 41" d="M367.77,89.42h-9V96h8.61V261.4a136.76,136.76,0,0,0-50.15-8.87,180.47,180.47,0,0,0-23.69,1.59q-3.69.47-7.06,1.08l3.85,15.66h77.49a7.22,7.22,0,0,0,7.21-7.21v-167A7.21,7.21,0,0,0,367.77,89.42Z" style="fill:#19164d"/>
    <path id="Path_42" data-name="Path 42" d="M296.43,199.21l1-8.69-3.31,4.38-8.48-3.17,6,7.19-2.89,4.21,7.73-3.51Z" style="fill:#19164d"/>
    <path id="Path_43" data-name="Path 43" d="M287.35,141.79l-6.41,4.11a34.39,34.39,0,0,1,6.95,10.95l6.56-4.81-2.34-5.88Z" style="fill:#2eb3c0"/>
    <path id="Path_44" data-name="Path 44" d="M289.42,177.07a34.12,34.12,0,0,1-5.2,11.82l9.1,3.38,3.74-5.4.91-6.45Z" style="fill:#2eb3c0"/>
    <path id="Path_45" data-name="Path 45" d="M288.77,199.07l-6.51-7.62a34.89,34.89,0,0,1-4.84,4.73,9.27,9.27,0,0,0-3.33,5.47l5.22,5.54,5.73-2.93Z" style="fill:#2eb3c0"/>
    <path id="Path_46" data-name="Path 46" d="M270.14,130.55l-3.63,6.23a34,34,0,0,1,11.23,6.15l3.24-6.72-4.78-4.1Z" style="fill:#2eb3c0"/>
    <path id="Path_46-2" data-name="Path 46" d="M250.09,128.39l-.26,7.21a33.86,33.86,0,0,1,12.81.11l-.32-7.45-6.15-1.36Z" style="fill:#2eb3c0"/>
    <path id="Path_47" data-name="Path 47" d="M309.62,208.56l.51-6.71-5.6-3.91-5.68,2.93v.2h-.42l-.52,6.24,5.6,4Z" style="fill:#ee8022"/>
    <path id="Path_48" data-name="Path 48" d="M294.94,215.38l6.11-3-5.57-4.12v-.62l.48-5.46L287,206.54l-5.41,8.6,5.63.1h.42l.4.59,3.13,5.32Z" style="fill:#2eb3c0"/>
    <path id="Path_49" data-name="Path 49" d="M289.54,223.57l-3.12-6.14-6.5-.12v.21l-2.06,2.88,2.13,8.65,6.21.3Z" style="fill:#ee8022"/>
    <path id="Path_50" data-name="Path 50" d="M310.73,192.17l4.53-5.6-6.86-.9L308,185l-1.94-5.29-6.23,8.17-1,10.14,5.68-2.76.41.42,5.62,3.33Z" style="fill:#2eb3c0"/>
    <path id="Path_52" data-name="Path 52" d="M298.79,157.36l1.95,4.88,1.35-8.46v-.38L295.31,148l1.94,4.88-7.38,5.33Z" style="fill:#19164d"/>
    <path id="Path_53" data-name="Path 53" d="M288.31,133.94l-8.51-1.6,4,3.34-4.22,8.42,7.8-5.12,4,3.51-2.7-8.17v-.17Z" style="fill:#19164d"/>
    <path id="Path_54" data-name="Path 54" d="M278.74,214.88l4.61-7.2-4.52,2.52-4.72-5a1.3,1.3,0,0,0,.07.33l2.34,9.52,1.8.07Z" style="fill:#19164d"/>
    <path id="Path_57" data-name="Path 57" d="M304.9,177.31v-.41l-3.45-8-.51,5.25-9.35,1.45,8.85,3.43-.92,5.25Z" style="fill:#19164d"/>
    <path id="Path_58" data-name="Path 58" d="M298.94,172.32l.53-6.45-2.34-6.09-8,.85a34.32,34.32,0,0,1,1.15,8.79,35.32,35.32,0,0,1-.25,4.12Z" style="fill:#2eb3c0"/>
    <path id="Path_59" data-name="Path 59" d="M278.13,114.12l-1.73,6.64-.83.19-5.28,1.52,7.16,7,10.08,2-1.93-5.92L286,125l4.15-4.78-6.85-1.36Z" style="fill:#2eb3c0"/>
    <path id="Path_59-2" data-name="Path 59" d="M249.6,109.84l1.45,6.71-.66.54-4,3.75,9.56,3,9.89-2.77-4.4-4.41.12-.7,1.55-6.14-6.73,1.88Z" style="fill:#2eb3c0"/>
    <path id="Path_60" data-name="Path 60" d="M264.84,109.45l-1.32,6.65,4.77,4.31,6.11-1.51,1.74-6.85-4.77-4.51Z" style="fill:#ee8022"/>
    <path id="Path_62" data-name="Path 62" d="M292.56,120.84,288,126l2.3,6.13,6.47,1.53,4.53-5.19L299.41,122Z" style="fill:#ee8022"/>
    <path id="Path_63" data-name="Path 63" d="M320.65,179.21l-2.29-6.34-7.28-.71-3.33,5.21v.21l2.29,5.87,6.88,1Z" style="fill:#ee8022"/>
    <path id="Path_64" data-name="Path 64" d="M302.11,131.11l-4.56,5-.79-.18-5.23-1.13,3.05,9.57,8,6.41.93-6,.38-.41,5.72-2.35-5.19-4.31Z" style="fill:#2eb3c0"/>
    <path id="Path_65" data-name="Path 65" d="M315.41,157.25l-6.55,2.33-.37-.43-4.4-3.72-1.8,10.08,4.27,9.39,3.73-5.19.42.21,6.45.53-2.71-6.35Z" style="fill:#2eb3c0"/>
    <path id="Path_66" data-name="Path 66" d="M312,143.64l-6.55,2.74-.9,6.24v.21l4.77,4.14,6.5-2.33,1.36-6.64Z" style="fill:#ee8022"/>
    <path d="M347.22,71.81c-3.41-.27-6.83-.4-10.24-.4-31.3,0-55.78,6.37-74.77,19.46a3.89,3.89,0,0,0-1.61,2.67,2.92,2.92,0,0,0,0,.51V100l2.43,1.34-1.25,1.17-5.65-2.83-5.52,3.16-.74-.7-.75-.81,2.39-1.3V94.07a2.92,2.92,0,0,0,0-.51,3.85,3.85,0,0,0-1.61-2.66c-19-13.12-43.5-19.49-74.81-19.49-3.4,0-6.82.13-10.23.4a3.86,3.86,0,0,0-3.52,3.85V236.38a3.87,3.87,0,0,0,3.89,3.83h.28q4.78-.33,9.59-.33a163.57,163.57,0,0,1,52.44,7.61l3-12-.9-.69,1.89-3.33v-.12l-5.21.29-1.23-1-1.23-.39L220.86,226l-1.55,3.25-2.46-.53,2.76-5.1-4.17-6.43-6.51-3.12-4.79,3.31-.87-2.39,2.82-2.07-4.52-2.36-.43-1.2-1.23-1-.51-5-2.74,2.07-2-1.62,4.79-3.31-.55-7.43-4.54-6-5.66.72.37-2.46,3.63-.48-3.31-4.17.39-1.42L189.3,178l1.94-4.67-3.64.27-1.22-2.22,6-.68,2.69-6.93-.91-7.27-5.72-2.1,1.58-2.06,3.69,1.39-.88-5.09.77-1.23V146l4-3.28-3.25-1.36,0-2.46L200,141l5.57-4.79,2.29-7.06-3.72-4.4,2.38-1,2.5,2.77,1.52-4.87,1.2-.68.81-1.23,5.25-.92-2.51-3,1.17-2,3.73,4.41,7.68-1.38,5.17-5.31-1.3-5.65,2.4.16.89,3.63,3.59-3.69,1.62.18,1.18-.85,4.88,1.53-.86-3.63,2.11-1.09,1.38,5.32.17,0,2.35.67,4.65,1.32,4.47-1.36,2.37-.72.36-.12,1.19-5.16,2.09,1.07-.86,3.66,4.88-1.52,1.18.84,1.62-.17,3.58,3.68.89-3.62,2.41-.17-1.3,5.65,5.17,5.32,7.68,1.37,3.72-4.37,1.17,2-2.5,3,5.25.92.8,1.23,1.22.62L303,126.5l2.5-2.78,2.38,1-3.76,4.44,2.33,7.08,5.59,4.78,5.67-2.13,0,2.46-3.28,1.33,4,3.31v1.42l.77,1.22-.88,5.1,3.69-1.39,1.58,2.06-5.71,2.13-.93,7.25,2.7,6.93,6,.68-1.23,2.22-3.64-.27,1.95,4.67-.44,1.23.39,1.42-3.31,4.17,3.63.48.38,2.46-5.66-.72-4.57,6-.55,7.43,4.79,3.31-2.06,1.6-2.8-2.06-.51,5-1.23,1-.44,1.2-4.52,2.36,2.84,2.09-.88,2.39-4.79-3.3-6.5,3.11-4.18,6.43,2.77,5.09-2.46.54L291.08,226l-2.89,4.23-1.23.39-1.23,1-5.21-.29,0,.13,1.9,3.33-.9.7,3,12A164.13,164.13,0,0,1,337,239.88c3.2,0,6.41.11,9.6.33a3.86,3.86,0,0,0,4.15-3.54c0-.1,0-.19,0-.28V75.66A3.84,3.84,0,0,0,347.22,71.81ZM211.45,217.86l3.65-.27.06,3.85-4.82,1.5Zm-4.4.7,2.14,6,6.07,1.3,0,2.46-8.11-1.88-2.6-7.64Zm-12.21-26.92,3.69,1.59-2,3.47-4.88-.94Zm-6.51-2.5,2,1-.72,6.33,4.92,4.14-1.16,2.26-6.15-5.38Zm6.43-25.38L191.54,166l-4.08-3.16,4.81-2.11Zm-5.37-6.4-4,5.12,2.54,6.05-2,1.46L183,162.33l4.77-6.76ZM197.1,137l-2.44.47.69-8.3,7.59-3.78.46,2.39-5.62,3Zm7.2-4.73.86,3.83-3.64.44-2.07-4.6Zm23.14-16-3.67-1.15.32-5.28,4.48,2.74Zm1.89-8.12-6.09-.1-3.51,5.32-2.46-.78,4.73-7,8.12.27Zm26.7.94-2.58-3L256,101.8l2.79,4.38Zm28.53,7.18-1.14-3.69,4.48-2.73.33,5.27Zm7.7-2.9-3.51-5.33-6.09.1-.79-2.25,8.12-.27,4.73,7Zm18.23,23.14-3.63-.44.85-3.84,4.86-.33Zm4.43.5-.68-6.27-5.62-3,.45-2.39,7.61,3.79.68,8.3Zm-18,80.59,3.64.27,1.11,5.07-4.82-1.49Zm7.92,8.84-8.12,1.89.05-2.46,6.07-1.31,2.14-6,2.46.26Zm10.63-29.72-2-3.48,3.69-1.59,3.16,4.12Zm3.12,6.11-1.15-2.27,4.92-4.13-.68-6.32,2-1,1.1,8.31Zm-1.33-39.06,2.49-3,4.81,2.12-4,3.15Zm8.79,6.21-2-1.46,2.55-6.05-4-5.12,1.64-1.79,4.77,6.76Z" style="fill:#19164d"/>
    <path d="M45.75,326l0-23.38L34.11,322.06H32L20.4,302.72V326H16V293.87h3.76l13.38,22.56,13.2-22.56H50.1l0,32.09Z" style="fill:#19164d"/>
    <path d="M57.15,309.92c0-9.4,7.24-16.41,17.09-16.41s17,7,17,16.41-7.24,16.41-17,16.41S57.15,319.31,57.15,309.92Zm29.52,0a12,12,0,0,0-12.43-12.33c-7.19,0-12.51,5.22-12.51,12.33s5.32,12.33,12.51,12.33A12.05,12.05,0,0,0,86.67,309.92Z" style="fill:#19164d"/>
    <path d="M119.7,326l-6.92-9.85c-.64,0-1.33.09-2,.09h-7.92V326H98.25V293.87h12.51c8.35,0,13.39,4.22,13.39,11.19a10.13,10.13,0,0,1-7.06,10.13L124.7,326Zm-.14-20.9c0-4.58-3.07-7.2-8.93-7.2h-7.79V312.3h7.79C116.49,312.3,119.56,309.64,119.56,305.06Z" style="fill:#19164d"/>
    <path d="M129,309.92c0-9.4,7.24-16.41,17.1-16.41s17,7,17,16.41-7.25,16.41-17,16.41S129,319.31,129,309.92Zm29.52,0a12,12,0,0,0-12.42-12.33c-7.2,0-12.51,5.22-12.51,12.33s5.31,12.33,12.51,12.33A12.05,12.05,0,0,0,158.47,309.92Z" style="fill:#19164d"/>
    <path d="M167.44,309.92c0-9.49,7.25-16.41,17-16.41,5,0,9.26,1.69,12.19,5l-3,2.89a11.89,11.89,0,0,0-9-3.8c-7.24,0-12.6,5.22-12.6,12.33s5.36,12.33,12.6,12.33a11.93,11.93,0,0,0,9-3.85l3,2.89c-2.93,3.3-7.24,5-12.24,5C174.69,326.33,167.44,319.41,167.44,309.92Z" style="fill:#19164d"/>
    <path d="M199.89,309.92c0-9.49,7.24-16.41,17-16.41,5,0,9.26,1.69,12.2,5l-3,2.89a11.86,11.86,0,0,0-9-3.8c-7.25,0-12.61,5.22-12.61,12.33s5.36,12.33,12.61,12.33a11.91,11.91,0,0,0,9-3.85l3,2.89a15.94,15.94,0,0,1-12.24,5C207.13,326.33,199.89,319.41,199.89,309.92Z" style="fill:#19164d"/>
    <path d="M255.29,317.94h-17l-3.53,8H230l14.53-32.09h4.54L263.63,326h-4.81Zm-1.6-3.67-6.92-15.72-6.92,15.72Z" style="fill:#19164d"/>
    <path d="M296,293.87V326h-3.76L273,302V326h-4.59V293.87h3.76L291.4,317.8V293.87Z" style="fill:#19164d"/>
    <path d="M315,322.29l1.7-3.57a16.52,16.52,0,0,0,10.59,3.71c5.54,0,7.93-2.15,7.93-4.95,0-7.84-19.44-2.89-19.44-14.8,0-5,3.85-9.17,12.29-9.17a18.89,18.89,0,0,1,10.31,2.84L336.86,300a16.57,16.57,0,0,0-8.8-2.62c-5.46,0-7.8,2.3-7.8,5.09,0,7.84,19.44,2.94,19.44,14.72,0,4.9-3.94,9.12-12.42,9.12C322.37,326.33,317.56,324.68,315,322.29Z" style="fill:#19164d"/>
    <path d="M369.67,322v4H346.38V293.87H369v4H351v9.86h16.08v3.89H351V322Z" style="fill:#19164d"/>
    <path d="M374.33,309.92c0-9.49,7.25-16.41,17-16.41,5,0,9.26,1.69,12.19,5l-3,2.89a11.89,11.89,0,0,0-9-3.8c-7.24,0-12.6,5.22-12.6,12.33s5.36,12.33,12.6,12.33a11.93,11.93,0,0,0,9-3.85l3,2.89c-2.93,3.3-7.24,5-12.24,5C381.58,326.33,374.33,319.41,374.33,309.92Z" style="fill:#19164d"/>
    <path d="M431.53,326l-6.92-9.85c-.65,0-1.33.09-2,.09h-7.93V326h-4.58V293.87h12.51c8.34,0,13.38,4.22,13.38,11.19a10.13,10.13,0,0,1-7.05,10.13l7.6,10.77Zm-.14-20.9c0-4.58-3.07-7.2-8.94-7.2h-7.79V312.3h7.79C428.32,312.3,431.39,309.64,431.39,305.06Z" style="fill:#19164d"/>
    <path d="M466.68,322v4H443.39V293.87H466v4H448v9.86h16.08v3.89H448V322Z" style="fill:#19164d"/>
    <path d="M480.46,297.86h-11v-4H496v4H485V326h-4.54Z" style="fill:#19164d"/>
    <path d="M140.23,348.43v32.09h-9.07V368H118.78v12.52h-9.07V348.43h9.07v12.06h12.38V348.43Z" style="fill:#19164d"/>
    <path d="M168.14,374.28H154.57l-2.52,6.24h-9.26L157,348.43h8.94l14.21,32.09h-9.44Zm-2.66-6.69-4.13-10.27-4.12,10.27Z" style="fill:#19164d"/>
    <path d="M213.18,348.43v32.09h-7.47l-14.16-17.1v17.1h-8.89V348.43h7.47l14.16,17.1v-17.1Z" style="fill:#19164d"/>
    <path d="M219.59,348.43h15.17c10.64,0,17.92,6.19,17.92,16s-7.28,16-17.92,16H219.59Zm14.8,24.84c5.46,0,9.13-3.25,9.13-8.8s-3.67-8.8-9.13-8.8h-5.73v17.6Z" style="fill:#19164d"/>
    <path d="M288,371.72c0,5.54-4.58,8.8-13.2,8.8H257.44V348.43h16.41c8.43,0,12.56,3.44,12.56,8.39a7.58,7.58,0,0,1-4.31,7C285.72,365.07,288,367.82,288,371.72ZM266.42,355v6.18h6.24c3,0,4.58-1.05,4.58-3.11s-1.56-3.07-4.58-3.07Zm12.38,15.72c0-2.2-1.65-3.26-4.77-3.26h-7.61V374H274C277.15,374,278.8,372.91,278.8,370.71Z" style="fill:#19164d"/>
    <path d="M291,364.47c0-9.62,7.56-16.68,17.83-16.68s17.83,7.06,17.83,16.68-7.56,16.69-17.83,16.69S291,374.1,291,364.47Zm26.49,0c0-5.54-3.8-9.16-8.66-9.16s-8.67,3.62-8.67,9.16,3.81,9.17,8.67,9.17S317.52,370,317.52,364.47Z" style="fill:#19164d"/>
    <path d="M329.79,364.47c0-9.62,7.57-16.68,17.83-16.68s17.83,7.06,17.83,16.68-7.56,16.69-17.83,16.69S329.79,374.1,329.79,364.47Zm26.5,0c0-5.54-3.81-9.16-8.67-9.16s-8.66,3.62-8.66,9.16,3.81,9.17,8.66,9.17S356.29,370,356.29,364.47Z" style="fill:#19164d"/>
    <path d="M382.58,368.87l-3.39,3.62v8h-9V348.43h9v13.34l12.42-13.34h10L388.5,362.64l13.79,17.88H391.75Z" style="fill:#19164d"/>
</svg>